#!OML:ASF H:\GeneralSubjects\Female5\Project 1\Capture day 1\Session 1\Female5.ASF
:FULLY-SPECIFIED
:DEGREES
651
root -40.1957 16.3159 3.80596 -163.207 -288.843 -175.929
lowerback 12.404 4.86931 8.59652
upperback -12.2737 8.5826 -4.01507
thorax -19.0139 2.43329 -11.93
lowerneck -13.5464 8.76598 13.7306
upperneck 25.1582 10.8398 -3.6966
head 11.414 6.06221 -1.99217
rclavicle 3.68249e-014 -2.3059e-014
rhumerus -53.5249 3.65713 -86.9635
rradius 29.8909
rwrist -9.41656
rhand -26.9355 -23.9575
rfingers 7.12502
rthumb -0.357776 -53.937
lclavicle 3.68249e-014 -2.3059e-014
lhumerus -48.2271 -25.9772 86.7876
lradius 44.0179
lwrist -0.866225
lhand -23.0092 29.7943
lfingers 7.12502
lthumb 3.43419 59.7464
rfemur -1.74894 24.1504 32.1065
rtibia -2.77982
rfoot -35.0669 -31.3668
rtoes 14.5841
lfemur -14.6505 -27.3723 -18.9223
ltibia 5.11408
lfoot -28.0656 12.6269
ltoes -45.6453
652
root -40.2001 16.3149 3.81595 -163.208 -289.239 -175.858
lowerback 12.2994 4.84881 8.66503
upperback -12.2901 8.568 -4.0001
thorax -18.9632 2.42674 -11.9336
lowerneck -13.471 8.67736 13.6773
upperneck 25.542 10.7082 -3.37679
head 11.5108 6.05802 -1.88535
rclavicle 4.11981e-014 -4.77083e-014
rhumerus -53.589 3.47515 -87.1028
rradius 30.1062
rwrist -10.2229
rhand -27.127 -23.9969
rfingers 7.12502
rthumb -0.542732 -53.976
lclavicle 4.11981e-014 -4.77083e-014
lhumerus -47.5882 -25.8142 86.2179
lradius 43.1951
lwrist -1.00343
lhand -22.814 30.5273
lfingers 7.12502
lthumb 3.62271 60.4762
rfemur -1.33519 25.0739 32.3951
rtibia -3.12774
rfoot -36.5781 -31.8273
rtoes 15.9367
lfemur -14.4592 -27.9902 -18.8001
ltibia 4.69013
lfoot -28.1297 13.0903
ltoes -45.4848
653
root -40.2002 16.3151 3.82481 -163.2 -289.633 -175.755
lowerback 12.1413 4.81459 8.6927
upperback -12.2948 8.52298 -3.95433
thorax -18.8813 2.41966 -11.8615
lowerneck -13.4255 8.6105 13.6341
upperneck 25.9673 10.6138 -3.0913
head 11.637 6.0692 -1.78362
rclavicle -1.50381e-013 -1.43125e-014
rhumerus -53.6356 3.40352 -87.2984
rradius 30.3918
rwrist -11.0996
rhand -27.2407 -24.0795
rfingers 7.12502
rthumb -0.652604 -54.0582
lclavicle -1.50381e-013 -1.43125e-014
lhumerus -46.9694 -25.5151 85.6329
lradius 42.3506
lwrist -1.12152
lhand -22.5881 31.4444
lfingers 7.12502
lthumb 3.84088 61.3896
rfemur -0.784277 26.2705 32.7645
rtibia -3.55214
rfoot -38.447 -32.3299
rtoes 17.4963
lfemur -14.1524 -28.7057 -18.6874
ltibia 4.15874
lfoot -28.2811 13.5973
ltoes -45.3274
654
root -40.1976 16.3157 3.83185 -163.189 -290.021 -175.637
lowerback 11.9474 4.77901 8.70719
upperback -12.3028 8.47101 -3.9061
thorax -18.7843 2.41381 -11.7727
lowerneck -13.3988 8.53457 13.6405
upperneck 26.4208 10.5078 -2.8558
head 11.7845 6.07592 -1.70757
rclavicle -8.0806e-014 9.54166e-015
rhumerus -53.6875 3.36695 -87.5254
rradius 30.7352
rwrist -11.8789
rhand -27.228 -24.1477
rfingers 7.12502
rthumb -0.640276 -54.1265
lclavicle -8.0806e-014 9.54166e-015
lhumerus -46.4059 -25.1623 85.0501
lradius 41.5263
lwrist -1.25067
lhand -22.4289 32.2967
lfingers 7.12502
lthumb 3.9946 62.239
rfemur -0.114053 27.7401 33.2049
rtibia -4.03638
rfoot -40.7019 -32.8227
rtoes 19.2863
lfemur -13.7444 -29.5558 -18.5858
ltibia 3.51979
lfoot -28.5741 14.1615
ltoes -45.1992
655
root -40.1936 16.3158 3.83713 -163.192 -290.406 -175.522
lowerback 11.7166 4.7434 8.80493
upperback -12.0529 8.42102 -3.84022
thorax -18.9036 2.36957 -11.8059
lowerneck -13.4038 8.4401 13.6894
upperneck 26.9248 10.3701 -2.64025
head 11.961 6.07329 -1.64748
rclavicle -3.67752e-015 4.09496e-014
rhumerus -53.7478 3.32833 -87.7421
rradius 31.1223
rwrist -12.3478
rhand -27.0156 -24.103
rfingers 7.12502
rthumb -0.4352 -54.0823
lclavicle -3.67752e-015 4.09496e-014
lhumerus -45.9164 -24.7864 84.4836
lradius 40.7564
lwrist -1.41667
lhand -22.4586 32.7772
lfingers 7.12502
lthumb 3.96594 62.7201
rfemur 0.692202 29.5721 33.7316
rtibia -4.56736
rfoot -43.4882 -33.281
rtoes 21.417
lfemur -13.2428 -30.5715 -18.5013
ltibia 2.77733
lfoot -29.0511 14.7965
ltoes -45.1255
656
root -40.1892 16.3149 3.84099 -163.226 -290.793 -175.426
lowerback 11.4793 4.72361 8.80475
upperback -12.0766 8.38187 -3.82204
thorax -18.7873 2.37244 -11.7388
lowerneck -13.4235 8.30897 13.8277
upperneck 27.4606 10.1785 -2.49505
head 12.1603 6.05051 -1.63434
rclavicle -1.75427e-013 -3.26007e-014
rhumerus -53.8269 3.26383 -87.9464
rradius 31.543
rwrist -12.4662
rhand -26.6202 -24.0266
rfingers 7.12502
rthumb -0.0532644 -54.0064
lclavicle -1.75427e-013 -3.26007e-014
lhumerus -45.5095 -24.4434 83.9565
lradius 40.0688
lwrist -1.62591
lhand -22.7258 32.7921
lfingers 7.12502
lthumb 3.70785 62.7396
rfemur 1.66838 31.9112 34.3825
rtibia -5.11555
rfoot -47.0117 -33.6699
rtoes 23.9605
lfemur -12.6693 -31.7347 -18.4388
ltibia 1.96594
lfoot -29.7007 15.4831
ltoes -45.1178
